<svg width="365" height="85" viewBox="0 0 365 85" fill="none" xmlns="http://www.w3.org/2000/svg">
<path fill-rule="evenodd" clip-rule="evenodd" d="M20.8 22C32.2875 22 41.6 31.3125 41.6 42.8L24.7696 42.8C24.2395 41.1123 22.6627 39.888 20.8 39.888C18.9374 39.888 17.3606 41.1123 16.8305 42.8L4.88281e-05 42.8V42.8456L0 42.8C0 31.3125 9.31248 22 20.8 22Z" fill="#EE1515"/>
<path fill-rule="evenodd" clip-rule="evenodd" d="M20.8001 66.8C9.31258 66.8 9.91821e-05 57.4876 9.91821e-05 46H16.8305C17.3606 47.6878 18.9374 48.9121 20.8001 48.9121C22.6628 48.9121 24.2396 47.6878 24.7697 46L41.6001 46C41.6001 57.4876 32.2876 66.8 20.8001 66.8Z" fill="#F0F0F0"/>
<circle cx="20.8002" cy="44.4" r="2.88" fill="white"/>
<path d="M91.0625 47.4062V67H83.7812V18.75H92.0312C96.0729 18.75 99.125 19.0312 101.188 19.5938C103.271 20.1562 105.104 21.2188 106.688 22.7812C109.458 25.4896 110.844 28.9062 110.844 33.0312C110.844 37.4479 109.365 40.9479 106.406 43.5312C103.448 46.1146 99.4583 47.4062 94.4375 47.4062H91.0625ZM91.0625 40.6562H93.7812C100.469 40.6562 103.812 38.0833 103.812 32.9375C103.812 27.9583 100.365 25.4688 93.4688 25.4688H91.0625V40.6562ZM113.688 51.5625C113.688 47.1667 115.26 43.4271 118.406 40.3438C121.552 37.2604 125.385 35.7188 129.906 35.7188C134.448 35.7188 138.302 37.2708 141.469 40.375C144.594 43.4792 146.156 47.2917 146.156 51.8125C146.156 56.375 144.583 60.1979 141.438 63.2812C138.271 66.3438 134.385 67.875 129.781 67.875C125.219 67.875 121.396 66.3125 118.312 63.1875C115.229 60.1042 113.688 56.2292 113.688 51.5625ZM120.875 51.6875C120.875 54.7292 121.688 57.1354 123.312 58.9062C124.979 60.6979 127.177 61.5938 129.906 61.5938C132.656 61.5938 134.854 60.7083 136.5 58.9375C138.146 57.1667 138.969 54.8021 138.969 51.8438C138.969 48.8854 138.146 46.5208 136.5 44.75C134.833 42.9583 132.635 42.0625 129.906 42.0625C127.219 42.0625 125.042 42.9583 123.375 44.75C121.708 46.5417 120.875 48.8542 120.875 51.6875ZM160.656 14.2188V46.4062L170.562 36.5625H180L166.781 49.3438L180.969 67H171.844L161.781 54.1562L160.656 55.2812V67H153.625V14.2188H160.656ZM212.156 53.4375H190.344C190.531 55.9375 191.344 57.9271 192.781 59.4062C194.219 60.8646 196.062 61.5938 198.312 61.5938C200.062 61.5938 201.51 61.1771 202.656 60.3438C203.781 59.5104 205.062 57.9688 206.5 55.7188L212.438 59.0312C211.521 60.5938 210.552 61.9375 209.531 63.0625C208.51 64.1667 207.417 65.0833 206.25 65.8125C205.083 66.5208 203.823 67.0417 202.469 67.375C201.115 67.7083 199.646 67.875 198.062 67.875C193.521 67.875 189.875 66.4167 187.125 63.5C184.375 60.5625 183 56.6667 183 51.8125C183 47 184.333 43.1042 187 40.125C189.688 37.1875 193.25 35.7188 197.688 35.7188C202.167 35.7188 205.708 37.1458 208.312 40C210.896 42.8333 212.188 46.7604 212.188 51.7812L212.156 53.4375ZM204.938 47.6875C203.958 43.9375 201.594 42.0625 197.844 42.0625C196.99 42.0625 196.188 42.1979 195.438 42.4688C194.688 42.7188 194 43.0938 193.375 43.5938C192.771 44.0729 192.25 44.6562 191.812 45.3438C191.375 46.0312 191.042 46.8125 190.812 47.6875H204.938ZM208.25 21.5625L196.875 31.875L193.031 29.5L201.625 18.125L208.25 21.5625Z" fill="#EE1515"/>
<path d="M222.688 36.5625L230.656 53.9375L239.25 33.7812L247.906 53.9375L255.781 36.5625H263.656L247.719 69.2812L239.25 49.6875L230.688 69.2812L214.781 36.5625H222.688ZM275.469 36.5625V67H268.438V36.5625H275.469ZM267.375 23.9062C267.375 22.6771 267.823 21.6146 268.719 20.7188C269.615 19.8229 270.688 19.375 271.938 19.375C273.208 19.375 274.292 19.8229 275.188 20.7188C276.083 21.5938 276.531 22.6667 276.531 23.9375C276.531 25.2083 276.083 26.2917 275.188 27.1875C274.312 28.0833 273.24 28.5312 271.969 28.5312C270.698 28.5312 269.615 28.0833 268.719 27.1875C267.823 26.2917 267.375 25.1979 267.375 23.9062ZM291.625 43.125V67H284.594V43.125H281.594V36.5625H284.594V25.4062H291.625V36.5625H297.094V43.125H291.625ZM325.562 37.875V47.2188C323.958 45.2604 322.521 43.9167 321.25 43.1875C320 42.4375 318.531 42.0625 316.844 42.0625C314.198 42.0625 312 42.9896 310.25 44.8438C308.5 46.6979 307.625 49.0208 307.625 51.8125C307.625 54.6667 308.469 57.0104 310.156 58.8438C311.865 60.6771 314.042 61.5938 316.688 61.5938C318.375 61.5938 319.865 61.2292 321.156 60.5C322.406 59.7917 323.875 58.4167 325.562 56.375V65.6562C322.708 67.1354 319.854 67.875 317 67.875C312.292 67.875 308.354 66.3542 305.188 63.3125C302.021 60.25 300.438 56.4479 300.438 51.9062C300.438 47.3646 302.042 43.5312 305.25 40.4062C308.458 37.2812 312.396 35.7188 317.062 35.7188C320.062 35.7188 322.896 36.4375 325.562 37.875ZM334.062 14.2188H341.094V39.0938C343.594 36.8438 346.354 35.7188 349.375 35.7188C352.812 35.7188 355.562 36.8333 357.625 39.0625C359.375 41 360.25 44.0938 360.25 48.3438V67H353.219V49C353.219 46.5625 352.781 44.8021 351.906 43.7188C351.052 42.6146 349.667 42.0625 347.75 42.0625C345.292 42.0625 343.562 42.8229 342.562 44.3438C341.583 45.8854 341.094 48.5312 341.094 52.2812V67H334.062V14.2188Z" fill="white"/>
</svg>
